<svg xmlns="http://www.w3.org/2000/svg" viewBox="0 0 120 120" width="120" height="120" aria-labelledby="titleDD">
  <title id="titleDD">DevDrills AI Logo</title>

  <!-- Background circle -->
  <circle cx="60" cy="60" r="55" fill="#e0f7fa"/>

  <!-- AI nodes -->
  <circle cx="60" cy="30" r="8" fill="#0288d1"/>
  <circle cx="40" cy="60" r="6" fill="#03a9f4"/>
  <circle cx="80" cy="60" r="6" fill="#03a9f4"/>
  <circle cx="60" cy="90" r="8" fill="#0288d1"/>
  <circle cx="30" cy="40" r="4" fill="#29b6f6"/>
  <circle cx="90" cy="40" r="4" fill="#29b6f6"/>
  <circle cx="30" cy="80" r="4" fill="#29b6f6"/>
  <circle cx="90" cy="80" r="4" fill="#29b6f6"/>

  <!-- AI connections -->
  <line x1="60" y1="30" x2="40" y2="60" stroke="#0288d1" stroke-width="2"/>
  <line x1="60" y1="30" x2="80" y2="60" stroke="#0288d1" stroke-width="2"/>
  <line x1="40" y1="60" x2="60" y2="90" stroke="#0288d1" stroke-width="2"/>
  <line x1="80" y1="60" x2="60" y2="90" stroke="#0288d1" stroke-width="2"/>
  <line x1="40" y1="60" x2="30" y2="40" stroke="#03a9f4" stroke-width="1.5"/>
  <line x1="40" y1="60" x2="30" y2="80" stroke="#03a9f4" stroke-width="1.5"/>
  <line x1="80" y1="60" x2="90" y2="40" stroke="#03a9f4" stroke-width="1.5"/>
  <line x1="80" y1="60" x2="90" y2="80" stroke="#03a9f4" stroke-width="1.5"/>

  <!-- subtle curved coding elements -->
  <path d="M55 50 q5 -10 10 0" stroke="#0288d1" stroke-width="2" fill="none"/>
  <path d="M55 70 q5 10 10 0" stroke="#0288d1" stroke-width="2" fill="none"/>
</svg>